<?xml version="1.0" encoding="UTF-8" standalone="no"?>
<!DOCTYPE svg PUBLIC "-//W3C//DTD SVG 1.1//EN"
 "http://www.w3.org/Graphics/SVG/1.1/DTD/svg11.dtd">
<!-- Generated by graphviz version 2.50.0 (20211204.2007)
 -->
<!-- Title: strings/longest_substr_no_repeating.cpp Pages: 1 -->
<svg width="191pt" height="95pt"
 viewBox="0.00 0.00 190.50 95.00" xmlns="http://www.w3.org/2000/svg" xmlns:xlink="http://www.w3.org/1999/xlink">
<g id="graph0" class="graph" transform="scale(1 1) rotate(0) translate(4 91)">
<title>strings/longest_substr_no_repeating.cpp</title>
<polygon fill="white" stroke="transparent" points="-4,4 -4,-91 186.5,-91 186.5,4 -4,4"/>
<!-- Node1 -->
<g id="node1" class="node">
<title>Node1</title>
<g id="a_node1"><a xlink:title="Sliding window with an array to find the longest substring with no repeating characters.">
<polygon fill="#bfbfbf" stroke="black" points="31,-56.5 31,-86.5 144,-86.5 144,-56.5 31,-56.5"/>
<text text-anchor="start" x="39" y="-74.5" font-family="Helvetica,sans-Serif" font-size="10.00">strings/longest_substr</text>
<text text-anchor="middle" x="87.5" y="-63.5" font-family="Helvetica,sans-Serif" font-size="10.00">_no_repeating.cpp</text>
</a>
</g>
</g>
<!-- Node2 -->
<g id="node2" class="node">
<title>Node2</title>
<g id="a_node2"><a xlink:title=" ">
<polygon fill="white" stroke="#bfbfbf" points="0,-0.5 0,-19.5 49,-19.5 49,-0.5 0,-0.5"/>
<text text-anchor="middle" x="24.5" y="-7.5" font-family="Helvetica,sans-Serif" font-size="10.00">cassert</text>
</a>
</g>
</g>
<!-- Node1&#45;&gt;Node2 -->
<g id="edge1" class="edge">
<title>Node1&#45;&gt;Node2</title>
<path fill="none" stroke="midnightblue" d="M72.57,-56.4C63.13,-47.49 50.92,-35.95 41.17,-26.74"/>
<polygon fill="midnightblue" stroke="midnightblue" points="43.34,-23.98 33.67,-19.66 38.53,-29.07 43.34,-23.98"/>
</g>
<!-- Node3 -->
<g id="node3" class="node">
<title>Node3</title>
<g id="a_node3"><a xlink:title=" ">
<polygon fill="white" stroke="#bfbfbf" points="67,-0.5 67,-19.5 108,-19.5 108,-0.5 67,-0.5"/>
<text text-anchor="middle" x="87.5" y="-7.5" font-family="Helvetica,sans-Serif" font-size="10.00">string</text>
</a>
</g>
</g>
<!-- Node1&#45;&gt;Node3 -->
<g id="edge2" class="edge">
<title>Node1&#45;&gt;Node3</title>
<path fill="none" stroke="midnightblue" d="M87.5,-56.4C87.5,-48.47 87.5,-38.46 87.5,-29.86"/>
<polygon fill="midnightblue" stroke="midnightblue" points="91,-29.66 87.5,-19.66 84,-29.66 91,-29.66"/>
</g>
<!-- Node4 -->
<g id="node4" class="node">
<title>Node4</title>
<g id="a_node4"><a xlink:title=" ">
<polygon fill="white" stroke="#bfbfbf" points="126.5,-0.5 126.5,-19.5 182.5,-19.5 182.5,-0.5 126.5,-0.5"/>
<text text-anchor="middle" x="154.5" y="-7.5" font-family="Helvetica,sans-Serif" font-size="10.00">algorithm</text>
</a>
</g>
</g>
<!-- Node1&#45;&gt;Node4 -->
<g id="edge3" class="edge">
<title>Node1&#45;&gt;Node4</title>
<path fill="none" stroke="midnightblue" d="M103.38,-56.4C113.52,-47.4 126.66,-35.72 137.09,-26.47"/>
<polygon fill="midnightblue" stroke="midnightblue" points="139.6,-28.92 144.75,-19.66 134.95,-23.68 139.6,-28.92"/>
</g>
</g>
</svg>
