<?xml version="1.0" encoding="UTF-8" standalone="no"?>
<!DOCTYPE svg PUBLIC "-//W3C//DTD SVG 1.1//EN"
 "http://www.w3.org/Graphics/SVG/1.1/DTD/svg11.dtd">
<!-- Generated by graphviz version 2.50.0 (20211204.2007)
 -->
<!-- Title: lengthOfLongestSubstring Pages: 1 -->
<svg width="265pt" height="66pt"
 viewBox="0.00 0.00 265.00 66.00" xmlns="http://www.w3.org/2000/svg" xmlns:xlink="http://www.w3.org/1999/xlink">
<g id="graph0" class="graph" transform="scale(1 1) rotate(0) translate(4 62)">
<title>lengthOfLongestSubstring</title>
<polygon fill="white" stroke="transparent" points="-4,4 -4,-62 261,-62 261,4 -4,4"/>
<!-- Node1 -->
<g id="node1" class="node">
<title>Node1</title>
<g id="a_node1"><a xlink:title="for assert">
<polygon fill="#bfbfbf" stroke="black" points="0,-19.5 0,-38.5 129,-38.5 129,-19.5 0,-19.5"/>
<text text-anchor="middle" x="64.5" y="-26.5" font-family="Helvetica,sans-Serif" font-size="10.00">lengthOfLongestSubstring</text>
</a>
</g>
</g>
<!-- Node2 -->
<g id="node2" class="node">
<title>Node2</title>
<g id="a_node2"><a target="_blank" xlink:href="http://en.cppreference.com/w/cpp/string/basic_string/size#" xlink:title=" ">
<polygon fill="white" stroke="black" points="165,-38.5 165,-57.5 257,-57.5 257,-38.5 165,-38.5"/>
<text text-anchor="middle" x="211" y="-45.5" font-family="Helvetica,sans-Serif" font-size="10.00">std::string::length</text>
</a>
</g>
</g>
<!-- Node1&#45;&gt;Node2 -->
<g id="edge1" class="edge">
<title>Node1&#45;&gt;Node2</title>
<path fill="none" stroke="midnightblue" d="M129.3,-37.39C137.79,-38.51 146.44,-39.64 154.77,-40.74"/>
<polygon fill="midnightblue" stroke="midnightblue" points="154.37,-44.22 164.74,-42.05 155.29,-37.28 154.37,-44.22"/>
</g>
<!-- Node3 -->
<g id="node3" class="node">
<title>Node3</title>
<g id="a_node3"><a target="_blank" xlink:href="http://en.cppreference.com/w/cpp/algorithm/max#" xlink:title=" ">
<polygon fill="white" stroke="black" points="183.5,-0.5 183.5,-19.5 238.5,-19.5 238.5,-0.5 183.5,-0.5"/>
<text text-anchor="middle" x="211" y="-7.5" font-family="Helvetica,sans-Serif" font-size="10.00">std::max</text>
</a>
</g>
</g>
<!-- Node1&#45;&gt;Node3 -->
<g id="edge2" class="edge">
<title>Node1&#45;&gt;Node3</title>
<path fill="none" stroke="midnightblue" d="M129.3,-20.61C144.33,-18.63 159.86,-16.59 173.23,-14.83"/>
<polygon fill="midnightblue" stroke="midnightblue" points="173.99,-18.27 183.44,-13.49 173.07,-11.33 173.99,-18.27"/>
</g>
</g>
</svg>
