<?xml version="1.0" encoding="UTF-8" standalone="no"?>
<!DOCTYPE svg PUBLIC "-//W3C//DTD SVG 1.1//EN"
 "http://www.w3.org/Graphics/SVG/1.1/DTD/svg11.dtd">
<!-- Generated by graphviz version 2.50.0 (20211204.2007)
 -->
<!-- Title: main Pages: 1 -->
<svg width="408pt" height="66pt"
 viewBox="0.00 0.00 408.00 66.00" xmlns="http://www.w3.org/2000/svg" xmlns:xlink="http://www.w3.org/1999/xlink">
<g id="graph0" class="graph" transform="scale(1 1) rotate(0) translate(4 62)">
<title>main</title>
<polygon fill="white" stroke="transparent" points="-4,4 -4,-62 404,-62 404,4 -4,4"/>
<!-- Node1 -->
<g id="node1" class="node">
<title>Node1</title>
<g id="a_node1"><a xlink:title="Main function.">
<polygon fill="#bfbfbf" stroke="black" points="0,-19.5 0,-38.5 38,-38.5 38,-19.5 0,-19.5"/>
<text text-anchor="middle" x="19" y="-26.5" font-family="Helvetica,sans-Serif" font-size="10.00">main</text>
</a>
</g>
</g>
<!-- Node2 -->
<g id="node2" class="node">
<title>Node2</title>
<g id="a_node2"><a xlink:href="../../d4/d11/longest__substr__no__repeating_8cpp.html#aa8dca7b867074164d5f45b0f3851269d" target="_top" xlink:title="Self&#45;test implementations.">
<polygon fill="white" stroke="black" points="74,-19.5 74,-38.5 107,-38.5 107,-19.5 74,-19.5"/>
<text text-anchor="middle" x="90.5" y="-26.5" font-family="Helvetica,sans-Serif" font-size="10.00">test</text>
</a>
</g>
</g>
<!-- Node1&#45;&gt;Node2 -->
<g id="edge1" class="edge">
<title>Node1&#45;&gt;Node2</title>
<path fill="none" stroke="midnightblue" d="M38.26,-29C46.07,-29 55.31,-29 63.79,-29"/>
<polygon fill="midnightblue" stroke="midnightblue" points="63.95,-32.5 73.95,-29 63.95,-25.5 63.95,-32.5"/>
</g>
<!-- Node3 -->
<g id="node3" class="node">
<title>Node3</title>
<g id="a_node3"><a xlink:href="../../d4/d11/longest__substr__no__repeating_8cpp.html#ac4deea10aa96751a9fcb7fb6dd37269b" target="_top" xlink:title="for assert">
<polygon fill="white" stroke="black" points="143,-19.5 143,-38.5 272,-38.5 272,-19.5 143,-19.5"/>
<text text-anchor="middle" x="207.5" y="-26.5" font-family="Helvetica,sans-Serif" font-size="10.00">lengthOfLongestSubstring</text>
</a>
</g>
</g>
<!-- Node2&#45;&gt;Node3 -->
<g id="edge2" class="edge">
<title>Node2&#45;&gt;Node3</title>
<path fill="none" stroke="midnightblue" d="M107.01,-29C114.11,-29 123.08,-29 132.72,-29"/>
<polygon fill="midnightblue" stroke="midnightblue" points="132.96,-32.5 142.96,-29 132.96,-25.5 132.96,-32.5"/>
</g>
<!-- Node4 -->
<g id="node4" class="node">
<title>Node4</title>
<g id="a_node4"><a target="_blank" xlink:href="http://en.cppreference.com/w/cpp/string/basic_string/size#" xlink:title=" ">
<polygon fill="white" stroke="black" points="308,-38.5 308,-57.5 400,-57.5 400,-38.5 308,-38.5"/>
<text text-anchor="middle" x="354" y="-45.5" font-family="Helvetica,sans-Serif" font-size="10.00">std::string::length</text>
</a>
</g>
</g>
<!-- Node3&#45;&gt;Node4 -->
<g id="edge3" class="edge">
<title>Node3&#45;&gt;Node4</title>
<path fill="none" stroke="midnightblue" d="M272.3,-37.39C280.79,-38.51 289.44,-39.64 297.77,-40.74"/>
<polygon fill="midnightblue" stroke="midnightblue" points="297.37,-44.22 307.74,-42.05 298.29,-37.28 297.37,-44.22"/>
</g>
<!-- Node5 -->
<g id="node5" class="node">
<title>Node5</title>
<g id="a_node5"><a target="_blank" xlink:href="http://en.cppreference.com/w/cpp/algorithm/max#" xlink:title=" ">
<polygon fill="white" stroke="black" points="326.5,-0.5 326.5,-19.5 381.5,-19.5 381.5,-0.5 326.5,-0.5"/>
<text text-anchor="middle" x="354" y="-7.5" font-family="Helvetica,sans-Serif" font-size="10.00">std::max</text>
</a>
</g>
</g>
<!-- Node3&#45;&gt;Node5 -->
<g id="edge4" class="edge">
<title>Node3&#45;&gt;Node5</title>
<path fill="none" stroke="midnightblue" d="M272.3,-20.61C287.33,-18.63 302.86,-16.59 316.23,-14.83"/>
<polygon fill="midnightblue" stroke="midnightblue" points="316.99,-18.27 326.44,-13.49 316.07,-11.33 316.99,-18.27"/>
</g>
</g>
</svg>
